<svg width="1679" height="1199" viewBox="0 0 1679 1199" fill="none" xmlns="http://www.w3.org/2000/svg">
<path d="M1266.33 436.251C1266.28 436.196 1266.25 436.122 1266.25 436.045V197.111C1266.25 172.197 1246.05 152 1221.14 152H1000.76C988.801 152 977.331 156.749 968.872 165.203L871.846 262.171C854.231 279.775 825.683 279.775 808.069 262.171L711.043 165.203C702.584 156.749 691.114 152 679.154 152H458.777C433.863 152 413.666 172.197 413.666 197.111V436.166L145.525 662.358C135.364 670.929 129.5 683.546 129.5 696.839V1001.46C129.5 1026.38 149.697 1046.57 174.612 1046.57H368.555C393.469 1046.57 413.666 1026.38 413.666 1001.46V436.166H555.792C633.4 436.166 696.387 498.388 697.832 575.741V1001.55C697.832 1026.46 718.029 1046.66 742.943 1046.66H937.057C961.971 1046.66 982.168 1026.46 982.168 1001.55V575.826C983.528 498.473 1046.52 436.251 1124.21 436.251H1266.33V1001.55C1266.33 1026.46 1286.53 1046.66 1311.44 1046.66H1505.39C1530.3 1046.66 1550.5 1026.46 1550.5 1001.55V696.924C1550.5 683.63 1544.64 671.014 1534.47 662.443L1266.33 436.251Z" fill="#FFFCFB"/>
</svg>
